<svg width="17" height="17" viewBox="0 0 17 17" fill="none" xmlns="http://www.w3.org/2000/svg">
<g clip-path="url(#clip0_647_976)">
<path d="M16.4446 9.91924C16.6322 10.1068 16.7376 10.3613 16.7376 10.6266C16.7376 10.8919 16.6322 11.1463 16.4446 11.3339C16.257 11.5215 16.0026 11.6269 15.7373 11.6269C15.472 11.6269 15.2176 11.5215 15.03 11.3339L14.0706 10.3739L13.1113 11.3339C12.9237 11.5215 12.6693 11.6269 12.404 11.6269C12.1387 11.6269 11.8842 11.5215 11.6966 11.3339C11.509 11.1463 11.4037 10.8919 11.4037 10.6266C11.4037 10.3613 11.509 10.1068 11.6966 9.91924L12.6566 8.9599L11.6966 8.00057C11.509 7.81297 11.4037 7.55854 11.4037 7.29324C11.4037 7.02793 11.509 6.7735 11.6966 6.5859C11.8842 6.39831 12.1387 6.29291 12.404 6.29291C12.6693 6.29291 12.9237 6.39831 13.1113 6.5859L14.0706 7.5459L15.03 6.5859C15.2176 6.39831 15.472 6.29291 15.7373 6.29291C16.0026 6.29291 16.257 6.39831 16.4446 6.5859C16.6322 6.7735 16.7376 7.02793 16.7376 7.29324C16.7376 7.55854 16.6322 7.81297 16.4446 8.00057L15.4846 8.9599L16.4446 9.91924ZM2.07064 4.9599C2.07064 4.16878 2.30523 3.39542 2.74476 2.73762C3.18429 2.07982 3.809 1.56713 4.5399 1.26438C5.27081 0.961633 6.07508 0.88242 6.851 1.03676C7.62692 1.1911 8.33966 1.57206 8.89907 2.13147C9.45848 2.69088 9.83944 3.40362 9.99378 4.17954C10.1481 4.95546 10.0689 5.75973 9.76616 6.49064C9.46341 7.22154 8.95072 7.84625 8.29292 8.28578C7.63512 8.72531 6.86176 8.9599 6.07064 8.9599C5.0101 8.95884 3.9933 8.53708 3.24338 7.78716C2.49346 7.03724 2.0717 6.02044 2.07064 4.9599ZM4.07064 4.9599C4.07064 5.35546 4.18794 5.74214 4.4077 6.07104C4.62746 6.39994 4.93982 6.65629 5.30527 6.80766C5.67072 6.95904 6.07286 6.99864 6.46082 6.92147C6.84878 6.8443 7.20515 6.65382 7.48485 6.37412C7.76456 6.09441 7.95504 5.73804 8.03221 5.35008C8.10938 4.96212 8.06977 4.55999 7.9184 4.19454C7.76702 3.82908 7.51068 3.51673 7.18178 3.29696C6.85288 3.0772 6.4662 2.9599 6.07064 2.9599C5.54021 2.9599 5.0315 3.17062 4.65642 3.54569C4.28135 3.92076 4.07064 4.42947 4.07064 4.9599ZM6.07064 10.2932C4.65664 10.2948 3.30101 10.8572 2.30116 11.8571C1.30131 12.8569 0.738893 14.2126 0.737305 15.6266L0.737305 15.9599C0.737305 16.2251 0.842662 16.4795 1.0302 16.667C1.21773 16.8545 1.47209 16.9599 1.7373 16.9599C2.00252 16.9599 2.25688 16.8545 2.44441 16.667C2.63195 16.4795 2.7373 16.2251 2.7373 15.9599V15.6266C2.7373 14.7425 3.08849 13.8947 3.71362 13.2695C4.33874 12.6444 5.18658 12.2932 6.07064 12.2932C6.95469 12.2932 7.80254 12.6444 8.42766 13.2695C9.05278 13.8947 9.40397 14.7425 9.40397 15.6266V15.9599C9.40397 16.2251 9.50933 16.4795 9.69687 16.667C9.8844 16.8545 10.1388 16.9599 10.404 16.9599C10.6692 16.9599 10.9235 16.8545 11.1111 16.667C11.2986 16.4795 11.404 16.2251 11.404 15.9599V15.6266C11.4024 14.2126 10.84 12.8569 9.84012 11.8571C8.84027 10.8572 7.48464 10.2948 6.07064 10.2932Z" fill="#003DE6"/>
</g>
<defs>
<clipPath id="clip0_647_976">
<rect width="16" height="16" fill="white" transform="translate(0.737305 0.9599)"/>
</clipPath>
</defs>
</svg>
