<svg width="11" height="11" viewBox="0 0 11 11" fill="none" xmlns="http://www.w3.org/2000/svg">
<path d="M10.3678 4.01865L7.41534 1.06615C6.51974 0.172854 5.07011 0.172854 4.17451 1.06615L1.22202 4.01865C0.947642 4.29156 0.793853 4.66289 0.794927 5.0499V9.37405C0.795845 9.93848 1.25342 10.3957 1.81786 10.3961H9.772C10.3364 10.3957 10.794 9.93848 10.7949 9.37405V5.0499C10.796 4.66289 10.6422 4.29156 10.3678 4.01865ZM9.54491 9.14614H7.46159V7.8203C7.46159 6.94171 6.74935 6.22946 5.87076 6.22946H5.7191C4.84051 6.22946 4.12826 6.94171 4.12826 7.8203V9.14614H2.04493V5.0499C2.04506 4.99464 2.0669 4.94167 2.10576 4.9024L5.05826 1.9499C5.465 1.54305 6.12455 1.54297 6.5314 1.94971C6.53146 1.94977 6.53154 1.94984 6.5316 1.9499L9.48409 4.9024C9.52294 4.94167 9.54479 4.99464 9.54493 5.0499V9.14614H9.54491Z" fill="#003DE6"/>
</svg>
