<svg width="28" height="33" viewBox="0 0 28 33" fill="none" xmlns="http://www.w3.org/2000/svg">
<path d="M27.0642 6.34398C27.0655 5.18725 26.3622 4.191 25.2723 3.80588L16.627 0.75561C14.7709 0.0990211 12.7276 0.0976838 10.8728 0.747587L2.12318 3.80989C1.02931 4.19234 0.323242 5.18725 0.323242 6.34531C0.323242 7.50471 1.03065 8.49962 2.12452 8.88074L5.66288 10.115V12.3643C5.66288 16.7892 9.26142 20.3878 13.6864 20.3878C18.1113 20.3878 21.7099 16.7892 21.7099 12.3643V10.115L24.3844 9.18162V15.0374C24.3844 15.7756 24.9835 16.3747 25.7216 16.3747C26.4598 16.3747 27.0589 15.7756 27.0589 15.0374V6.37607C27.0589 6.36403 27.0642 6.35601 27.0642 6.34398ZM19.0354 12.3643C19.0354 15.3142 16.6363 17.7133 13.6864 17.7133C10.7364 17.7133 8.33738 15.3142 8.33738 12.3643V11.0484L10.826 11.9163C11.7474 12.2372 12.7169 12.399 13.685 12.399C14.6532 12.399 15.6214 12.2372 16.5427 11.9163L19.0354 11.0471V12.3629V12.3643ZM15.6628 9.39157C14.3884 9.83687 12.983 9.83687 11.7086 9.39157L3.0071 6.33328L11.7581 3.27098C12.3973 3.04766 13.0672 2.93533 13.7399 2.93533C14.4165 2.93533 15.0932 3.04899 15.7377 3.27633L24.383 6.34932L15.6628 9.39157ZM24.3255 30.6886C24.5448 31.3933 24.1503 32.1435 23.4456 32.3628C23.3132 32.4043 23.1795 32.423 23.0485 32.423C22.4788 32.423 21.9506 32.0553 21.7714 31.4816C20.719 28.0983 17.3959 25.7354 13.6877 25.7354C9.97952 25.7354 6.65645 28.0983 5.60404 31.4816C5.38473 32.1877 4.63052 32.5795 3.9298 32.3615C3.22507 32.1422 2.83058 31.392 3.04989 30.6873C4.44598 26.1968 8.82012 23.0609 13.6877 23.0609C18.5553 23.0609 22.9294 26.1981 24.3255 30.6886Z" fill="#E6ECFF"/>
</svg>
