<svg width="12" height="14" viewBox="0 0 12 14" fill="none" xmlns="http://www.w3.org/2000/svg">
<path d="M3 13C2.66863 13 2.4 12.7314 2.4 12.4V3.295L1.27502 4.41998C1.04245 4.65255 0.6659 4.65422 0.431283 4.42372V4.42372C0.193712 4.19031 0.19202 3.80798 0.427517 3.57248L3 1L5.57248 3.57248C5.80798 3.80798 5.80629 4.19031 5.56872 4.42372V4.42372C5.3341 4.65422 4.95755 4.65255 4.72498 4.41998L3.6 3.295V12.4C3.6 12.7314 3.33137 13 3 13V13ZM9 13L6.42752 10.4275C6.19202 10.192 6.19371 9.80969 6.43128 9.57628V9.57628C6.6659 9.34578 7.04245 9.34745 7.27502 9.58002L8.4 10.705V1.6C8.4 1.26863 8.66863 1 9 1V1C9.33137 1 9.6 1.26863 9.6 1.6V10.705L10.725 9.58002C10.9576 9.34745 11.3341 9.34578 11.5687 9.57628V9.57628C11.8063 9.80969 11.808 10.192 11.5725 10.4275L9 13Z" fill="#ABB4CC" stroke="#ABB4CC" stroke-width="0.5"/>
</svg>
