<svg width="80" height="18" viewBox="0 0 80 18" fill="none" xmlns="http://www.w3.org/2000/svg">
<path d="M0 16.8088V1.2481H6.13919C7.31941 1.2481 8.32488 1.47351 9.1556 1.92432C9.98631 2.37007 10.6195 2.99057 11.0551 3.78583C11.4958 4.57603 11.7161 5.48779 11.7161 6.52112C11.7161 7.55444 11.4933 8.46621 11.0475 9.2564C10.6018 10.0466 9.95592 10.662 9.11001 11.1027C8.26916 11.5434 7.25103 11.7637 6.05561 11.7637H2.14264V9.12723H5.52375C6.15692 9.12723 6.67865 9.01833 7.08894 8.80052C7.5043 8.57764 7.81328 8.27119 8.0159 7.88116C8.22358 7.48606 8.32742 7.03271 8.32742 6.52112C8.32742 6.00445 8.22358 5.55364 8.0159 5.16867C7.81328 4.77864 7.5043 4.47725 7.08894 4.26451C6.67358 4.0467 6.14679 3.93779 5.50856 3.93779H3.28994V16.8088H0Z" fill="#363F5E"/>
<path d="M13.7923 16.8088V5.13828H16.9303V7.17454H17.0518C17.2646 6.4502 17.6217 5.90314 18.1231 5.53337C18.6246 5.15854 19.2021 4.97112 19.8555 4.97112C20.0176 4.97112 20.1923 4.98125 20.3798 5.00151C20.5672 5.02178 20.7318 5.04963 20.8736 5.08509V7.95714C20.7217 7.91155 20.5115 7.87103 20.243 7.83557C19.9745 7.80011 19.7289 7.78238 19.506 7.78238C19.0298 7.78238 18.6044 7.88622 18.2295 8.0939C17.8597 8.29652 17.566 8.58018 17.3482 8.94488C17.1354 9.30958 17.029 9.73001 17.029 10.2061V16.8088H13.7923Z" fill="#363F5E"/>
<path d="M27.3224 17.0368C26.122 17.0368 25.0886 16.7936 24.2224 16.3073C23.3613 15.816 22.6978 15.1221 22.2318 14.2255C21.7658 13.3239 21.5328 12.2576 21.5328 11.0267C21.5328 9.82625 21.7658 8.77266 22.2318 7.86596C22.6978 6.95927 23.3537 6.25265 24.1997 5.74612C25.0506 5.23958 26.0485 4.98632 27.1933 4.98632C27.9632 4.98632 28.6799 5.11042 29.3435 5.35862C30.0121 5.60176 30.5946 5.96899 31.091 6.46033C31.5925 6.95167 31.9825 7.56964 32.2611 8.31424C32.5397 9.05378 32.679 9.91996 32.679 10.9128V11.8017H22.8244V9.79586H29.6322C29.6322 9.32985 29.5309 8.91702 29.3283 8.55738C29.1257 8.19774 28.8446 7.91662 28.4849 7.714C28.1304 7.50632 27.7175 7.40248 27.2465 7.40248C26.7551 7.40248 26.3195 7.51645 25.9396 7.74439C25.5648 7.96727 25.271 8.26866 25.0582 8.64856C24.8455 9.02339 24.7366 9.44128 24.7315 9.90223V11.8093C24.7315 12.3868 24.8379 12.8857 25.0506 13.3061C25.2684 13.7266 25.5749 14.0507 25.97 14.2787C26.3651 14.5066 26.8336 14.6206 27.3756 14.6206C27.7353 14.6206 28.0645 14.5699 28.3634 14.4686C28.6622 14.3673 28.918 14.2154 29.1308 14.0128C29.3435 13.8101 29.5056 13.5619 29.617 13.2681L32.6106 13.4657C32.4587 14.185 32.1472 14.8131 31.6761 15.35C31.2101 15.8819 30.6073 16.2972 29.8678 16.5961C29.1333 16.8899 28.2848 17.0368 27.3224 17.0368Z" fill="#363F5E"/>
<path d="M45.3582 5.13828L41.2781 16.8088H37.631L33.5509 5.13828H36.97L39.3938 13.4885H39.5153L41.9315 5.13828H45.3582Z" fill="#363F5E"/>
<path d="M56.6868 1.2481H59.9768V11.3534C59.9768 12.4881 59.7058 13.4809 59.1638 14.3319C58.6269 15.1828 57.8747 15.8464 56.9072 16.3225C55.9397 16.7936 54.8127 17.0292 53.5261 17.0292C52.2344 17.0292 51.1048 16.7936 50.1373 16.3225C49.1699 15.8464 48.4177 15.1828 47.8807 14.3319C47.3438 13.4809 47.0754 12.4881 47.0754 11.3534V1.2481H50.3653V11.0723C50.3653 11.665 50.4945 12.1918 50.7528 12.6527C51.0162 13.1137 51.386 13.4758 51.8621 13.7392C52.3382 14.0026 52.8929 14.1343 53.5261 14.1343C54.1643 14.1343 54.7189 14.0026 55.19 13.7392C55.6662 13.4758 56.0334 13.1137 56.2917 12.6527C56.5551 12.1918 56.6868 11.665 56.6868 11.0723V1.2481Z" fill="#003DE6"/>
<path d="M65.8595 10.0618V16.8088H62.6228V5.13828H65.7076V7.19734H65.8443C66.1027 6.51858 66.5358 5.98166 67.1436 5.58656C67.7514 5.1864 68.4884 4.98632 69.3546 4.98632C70.1651 4.98632 70.8717 5.16361 71.4745 5.51818C72.0772 5.87275 72.5458 6.37929 72.8801 7.03778C73.2144 7.69121 73.3816 8.47127 73.3816 9.37797V16.8088H70.1448V9.95541C70.1499 9.2412 69.9675 8.68401 69.5977 8.28385C69.228 7.87863 68.7189 7.67601 68.0705 7.67601C67.6349 7.67601 67.25 7.76972 66.9156 7.95714C66.5864 8.14456 66.3281 8.41808 66.1407 8.77772C65.9583 9.1323 65.8646 9.56032 65.8595 10.0618Z" fill="#003DE6"/>
<path d="M75.9326 16.8088V5.13828H79.1693V16.8088H75.9326ZM77.5586 3.63387C77.0774 3.63387 76.6645 3.47431 76.3201 3.1552C75.9807 2.83102 75.811 2.44352 75.811 1.9927C75.811 1.54695 75.9807 1.16452 76.3201 0.845404C76.6645 0.521222 77.0774 0.359131 77.5586 0.359131C78.0398 0.359131 78.4501 0.521222 78.7894 0.845404C79.1339 1.16452 79.3061 1.54695 79.3061 1.9927C79.3061 2.44352 79.1339 2.83102 78.7894 3.1552C78.4501 3.47431 78.0398 3.63387 77.5586 3.63387Z" fill="#003DE6"/>
</svg>
