<svg width="33" height="33" viewBox="0 0 33 33" fill="none" xmlns="http://www.w3.org/2000/svg">
<path d="M16.2667 0.328979C7.41814 0.328979 0.219727 7.52739 0.219727 16.376C0.219727 25.2245 7.41814 32.423 16.2667 32.423C25.1153 32.423 32.3137 25.2245 32.3137 16.376C32.3137 7.52739 25.1153 0.328979 16.2667 0.328979ZM16.2667 29.7485C8.89312 29.7485 2.89422 23.7496 2.89422 16.376C2.89422 9.00238 8.89312 3.00348 16.2667 3.00348C23.6403 3.00348 29.6392 9.00238 29.6392 16.376C29.6392 23.7496 23.6403 29.7485 16.2667 29.7485ZM21.0781 23.327C21.6692 23.7683 21.7922 24.6054 21.3509 25.1978C21.0888 25.5508 20.6863 25.7354 20.2771 25.7354C20.0003 25.7354 19.7195 25.6498 19.4788 25.4706C19.4694 25.4639 17.9904 24.3981 16.2667 24.3981C14.543 24.3981 13.0627 25.4639 13.0493 25.4746C12.4515 25.9079 11.6158 25.7808 11.1825 25.1898C10.7452 24.5987 10.8669 23.7656 11.4566 23.3257C11.5449 23.2601 13.639 21.7236 16.2681 21.7236C18.8971 21.7236 20.9899 23.2601 21.0795 23.3257L21.0781 23.327ZM14.0455 17.7105L8.69655 19.6389C8.54811 19.6937 8.39299 19.7191 8.24322 19.7191C7.69629 19.7191 7.18145 19.3808 6.98621 18.8352C6.7348 18.1398 7.09586 17.3749 7.79123 17.1248L13.1402 15.1965C13.8329 14.9438 14.6018 15.3048 14.8506 16.0015C15.102 16.6969 14.7409 17.4605 14.0455 17.7105ZM25.5486 18.8352C25.3533 19.3808 24.8385 19.7191 24.2915 19.7191C24.1418 19.7191 23.9867 19.6937 23.8382 19.6389L18.4892 17.7105C17.7939 17.4591 17.4341 16.6942 17.6842 16.0002C17.9343 15.3035 18.7045 14.9424 19.3945 15.1952L24.7435 17.1235C25.4389 17.3749 25.7986 18.1411 25.5486 18.8352Z" fill="#FF6A6A"/>
</svg>
