<svg width="17" height="17" viewBox="0 0 17 17" fill="none" xmlns="http://www.w3.org/2000/svg">
<g clip-path="url(#clip0_657_856)">
<path d="M5.39915 16.6544C4.19232 16.6537 3.02649 16.2164 2.11679 15.4234C1.20709 14.6304 0.614909 13.5351 0.449527 12.3396C0.284145 11.1442 0.556719 9.92925 1.21695 8.91903C1.87719 7.90882 2.88052 7.17149 4.04182 6.8431C4.8859 6.60138 5.77935 6.59033 6.62915 6.8111L11.9012 1.54043C12.181 1.25862 12.5141 1.03519 12.881 0.883096C13.2479 0.731003 13.6413 0.653279 14.0385 0.654432C14.6635 0.654961 15.2628 0.903492 15.7048 1.34546C16.1468 1.78743 16.3953 2.38672 16.3958 3.01177C16.3969 3.40896 16.3191 3.80242 16.1672 4.16939C16.0152 4.53637 15.792 4.86958 15.5105 5.14977L15.0625 5.59776C14.8118 5.84672 14.4731 5.98685 14.1198 5.98777H13.0625V6.65443C13.0625 7.00805 12.922 7.34719 12.672 7.59724C12.4219 7.84729 12.0828 7.98777 11.7292 7.98777H11.0625V9.0451C11.063 9.22026 11.0287 9.39377 10.9616 9.55558C10.8946 9.71739 10.7961 9.86429 10.6718 9.98777L10.2385 10.4211C10.4605 11.2705 10.4496 12.164 10.2072 13.0078C9.93429 13.9691 9.38069 14.8271 8.61724 15.4719C7.8538 16.1167 6.91526 16.5189 5.92182 16.6271C5.74818 16.6451 5.57373 16.6543 5.39915 16.6544ZM5.39915 7.98777C4.71658 7.9871 4.04738 8.17698 3.46688 8.53602C2.88637 8.89506 2.41761 9.40901 2.11335 10.02C1.8091 10.631 1.68144 11.3148 1.74473 11.9945C1.80803 12.6741 2.05978 13.3225 2.47163 13.8669C2.88348 14.4112 3.4391 14.8297 4.07592 15.0754C4.71275 15.321 5.40551 15.3841 6.07621 15.2574C6.74692 15.1307 7.36894 14.8193 7.87227 14.3582C8.37559 13.8972 8.74024 13.3048 8.92515 12.6478C9.13315 11.9255 9.10984 11.1562 8.85849 10.4478C8.81746 10.3295 8.81059 10.202 8.83865 10.08C8.86671 9.95793 8.92858 9.84627 9.01715 9.75776L9.72915 9.0451V7.98777C9.72915 7.63414 9.86963 7.295 10.1197 7.04496C10.3697 6.79491 10.7089 6.65443 11.0625 6.65443H11.7292V5.98777C11.7292 5.63414 11.8696 5.295 12.1197 5.04496C12.3697 4.79491 12.7089 4.65443 13.0625 4.65443H14.1198L14.5678 4.20643C14.7251 4.04987 14.8498 3.86367 14.9347 3.65862C15.0196 3.45356 15.0631 3.2337 15.0625 3.01177C15.0623 2.74035 14.9545 2.4801 14.7626 2.28812C14.5707 2.09614 14.3106 1.98812 14.0392 1.98776C13.8171 1.98722 13.5971 2.03072 13.3919 2.11574C13.1867 2.20076 13.0004 2.32562 12.8438 2.4831L7.28982 8.03643C7.20118 8.12502 7.08937 8.18683 6.96721 8.21478C6.84505 8.24272 6.71749 8.23567 6.59915 8.19443C6.21253 8.05831 5.8057 7.98844 5.39582 7.98777H5.39915ZM3.72915 12.6544C3.72915 12.7863 3.76825 12.9152 3.84151 13.0248C3.91476 13.1344 4.01888 13.2199 4.1407 13.2704C4.26251 13.3208 4.39656 13.334 4.52588 13.3083C4.6552 13.2826 4.77399 13.2191 4.86722 13.1258C4.96046 13.0326 5.02395 12.9138 5.04968 12.7845C5.0754 12.6552 5.0622 12.5211 5.01174 12.3993C4.96128 12.2775 4.87583 12.1734 4.7662 12.1001C4.65657 12.0269 4.52767 11.9878 4.39582 11.9878C4.21901 11.9878 4.04944 12.058 3.92441 12.183C3.79939 12.3081 3.72915 12.4776 3.72915 12.6544Z" fill="#003DE6"/>
</g>
<defs>
<clipPath id="clip0_657_856">
<rect width="16" height="16" fill="white" transform="translate(0.395996 0.654419)"/>
</clipPath>
</defs>
</svg>
