<svg width="20" height="20" viewBox="0 0 20 20" fill="none" xmlns="http://www.w3.org/2000/svg">
<g clip-path="url(#clip0_613_637)">
<path d="M10.019 19.1424C4.95398 19.1424 0.833984 15.0324 0.833984 9.98161C0.833984 5.23078 4.40482 1.31078 9.14065 0.861611C9.50982 0.819111 9.84482 1.03078 9.98648 1.36494C10.129 1.69828 10.0382 2.08661 9.76232 2.32244C8.85065 3.10411 8.40732 4.45578 8.40732 6.45328C8.40732 10.7266 10.3773 11.5849 13.5565 11.5849C15.6082 11.5849 16.9232 11.1558 17.6965 10.2349C17.9298 9.95494 18.3207 9.86244 18.6557 10.0016C18.9923 10.1424 19.1982 10.4858 19.1632 10.8491C18.7173 15.5766 14.7857 19.1416 10.019 19.1416V19.1424ZM7.31732 2.97994C4.46898 4.05994 2.50065 6.79161 2.50065 9.98078C2.50065 14.1133 5.87398 17.4749 10.019 17.4749C13.2123 17.4749 15.9482 15.5208 17.0365 12.6916C15.8565 13.1741 14.569 13.2524 13.5557 13.2524C10.6298 13.2524 6.73982 12.5474 6.73982 6.45411C6.73982 5.07661 6.93148 3.92411 7.31732 2.97994Z" fill="white"/>
</g>
<defs>
<clipPath id="clip0_613_637">
<rect width="20" height="20" fill="white"/>
</clipPath>
</defs>
</svg>
