<svg width="17" height="17" viewBox="0 0 17 17" fill="none" xmlns="http://www.w3.org/2000/svg">
<path d="M9.43463 16.1069C10.2471 11.8413 11.3643 10.7241 15.63 9.91156C16.1378 9.81 16.4425 9.40375 16.4425 8.89593C16.4425 8.38811 16.1378 7.98186 15.63 7.8803C11.3643 7.06779 10.2471 5.9506 9.43463 1.68494C9.33307 1.17713 8.92682 0.872437 8.419 0.872437C7.91119 0.872437 7.50493 1.17713 7.40337 1.68494C6.59086 5.9506 5.47367 7.06779 1.20801 7.8803C0.801761 7.98186 0.395508 8.38811 0.395508 8.89593C0.395508 9.40375 0.700198 9.81 1.20801 9.91156C5.47367 10.7241 6.59086 11.8413 7.40337 16.1069C7.50493 16.6147 7.91119 16.9194 8.419 16.9194C8.92682 16.9194 9.33307 16.5132 9.43463 16.1069Z" fill="#003DE6"/>
</svg>
