<svg width="17" height="17" viewBox="0 0 17 17" fill="none" xmlns="http://www.w3.org/2000/svg">
<path d="M8.18279 1.21796C6.65161 1.21796 5.15482 1.67201 3.88169 2.52268C2.60857 3.37336 1.61629 4.58246 1.03033 5.99708C0.444374 7.4117 0.291061 8.96831 0.589779 10.4701C0.888497 11.9718 1.62583 13.3513 2.70853 14.434C3.79124 15.5167 5.17069 16.254 6.67245 16.5527C8.1742 16.8515 9.73081 16.6981 11.1454 16.1122C12.5601 15.5262 13.7692 14.5339 14.6198 13.2608C15.4705 11.9877 15.9246 10.4909 15.9246 8.95973C15.9223 6.90716 15.106 4.9393 13.6546 3.48792C12.2032 2.03654 10.2354 1.22018 8.18279 1.21796ZM14.3588 7.1017L8.61181 8.2191C8.52137 8.0795 8.44199 7.93303 8.3744 7.78104L6.21961 2.81341C7.03535 2.55194 7.89505 2.45577 8.74841 2.53052C9.60177 2.60527 10.4317 2.84943 11.1895 3.24873C11.9474 3.64803 12.618 4.19445 13.1622 4.85602C13.7064 5.51759 14.1132 6.28104 14.3588 7.1017ZM8.18279 15.4112C6.75516 15.4117 5.36771 14.9385 4.23799 14.0656C3.10826 13.1928 2.30014 11.9697 1.94033 10.5881C1.58052 9.20659 1.68935 7.74469 2.24978 6.43166C2.81021 5.11862 3.79053 4.02869 5.03705 3.33275L7.19055 8.29458C7.49698 8.99984 7.97814 9.61534 8.58859 10.0829L12.8808 13.368C12.2795 14.0124 11.5522 14.5262 10.7441 14.8777C9.93589 15.2292 9.06408 15.4108 8.18279 15.4112ZM13.6665 12.3435L9.71501 9.31907L14.6059 8.36877C14.6233 8.56232 14.6356 8.76038 14.6356 8.95973C14.635 10.156 14.2993 11.3283 13.6665 12.3435Z" fill="#003DE6"/>
<path d="M15.9246 8.95973C15.9225 7.03559 15.205 5.18586 13.9196 3.76629L13.6546 3.48792C12.2032 2.03654 10.2354 1.22018 8.18279 1.21796C6.65161 1.21796 5.15482 1.67201 3.88169 2.52268C2.60857 3.37336 1.61629 4.58246 1.03033 5.99708L0.925888 6.26422C0.427392 7.60625 0.309791 9.06228 0.589779 10.4701C0.888497 11.9718 1.62583 13.3513 2.70853 14.434C3.79124 15.5167 5.17069 16.254 6.67245 16.5527C8.1742 16.8515 9.73081 16.6981 11.1454 16.1122C12.4716 15.5628 13.6169 14.6561 14.4558 13.4959L14.6198 13.2608C15.4174 12.0672 15.8666 10.6769 15.9195 9.24601L15.9246 8.95973ZM7.19055 8.29458C7.49698 8.99984 7.97814 9.61534 8.58859 10.0829L12.8808 13.368C12.2795 14.0124 11.5522 14.5262 10.7441 14.8777L10.4378 15.0019C9.71758 15.2721 8.95377 15.4108 8.18279 15.4112L8.18279 15.1531C9.02867 15.1527 9.86571 14.9784 10.6414 14.6411C11.3298 14.3416 11.9564 13.9187 12.4922 13.3951L8.43177 10.2883C7.78657 9.79408 7.27786 9.14268 6.95398 8.39724L4.91673 3.70278C3.8371 4.37262 2.98791 5.36058 2.48735 6.53337C1.94945 7.79379 1.84458 9.19704 2.18997 10.5232C2.5354 11.8494 3.31108 13.0239 4.39557 13.8618C5.48007 14.6997 6.81233 15.1536 8.18279 15.1531L8.18279 15.4112L7.91566 15.4062C6.6717 15.3551 5.46894 14.9444 4.45303 14.2247L4.23799 14.0656C3.10826 13.1928 2.30014 11.9697 1.94033 10.5881C1.58052 9.20659 1.68935 7.74469 2.24978 6.43166C2.81021 5.11862 3.79053 4.02869 5.03705 3.33275L7.19055 8.29458ZM14.3691 8.67748L10.3279 9.46274L13.5889 11.9597C14.1023 11.044 14.3767 10.0126 14.3772 8.95973C14.3772 8.86576 14.3741 8.77162 14.3691 8.67748ZM6.21961 2.81341C7.03535 2.55194 7.89505 2.45577 8.74841 2.53052C9.60177 2.60527 10.4317 2.84943 11.1895 3.24873C11.9474 3.64803 12.618 4.19445 13.1622 4.85602C13.7064 5.51759 14.1132 6.28104 14.3588 7.1017L8.61181 8.2191L8.48419 8.00511L8.3744 7.78104L6.21961 2.81341ZM8.72612 2.78748C8.00172 2.72403 7.27248 2.78959 6.57194 2.97901L8.6102 7.67649L8.711 7.88213C8.71998 7.89869 8.73094 7.91413 8.74024 7.93052L14.0224 6.90433C13.7825 6.21972 13.4247 5.5817 12.9629 5.0203C12.4405 4.38522 11.7963 3.86029 11.0688 3.47698C10.3415 3.09382 9.54509 2.85925 8.72612 2.78748ZM14.6312 9.18351C14.5916 10.3018 14.2598 11.3917 13.6665 12.3435L9.71501 9.31907L14.6059 8.36877C14.6233 8.56232 14.6356 8.76038 14.6356 8.95973L14.6312 9.18351ZM16.1826 8.95973C16.1826 10.5419 15.7138 12.0887 14.8349 13.4042C13.9558 14.7198 12.706 15.7452 11.2442 16.3507C9.78254 16.9561 8.17405 17.1149 6.62234 16.8063C5.07052 16.4977 3.64445 15.7357 2.52565 14.6169C1.40686 13.4981 0.644858 12.072 0.336183 10.5202C0.027595 8.96847 0.186377 7.35997 0.791818 5.8983C1.39731 4.43652 2.42276 3.18669 3.73833 2.30765C5.05385 1.42871 6.60066 0.9599 8.18279 0.9599L8.57996 0.96998C10.5563 1.07012 12.431 1.89972 13.8369 3.30562C15.3366 4.80532 16.1803 6.83882 16.1826 8.95973Z" fill="#003DE6"/>
</svg>
