<svg width="14" height="15" viewBox="0 0 14 15" fill="none" xmlns="http://www.w3.org/2000/svg">
<path d="M9.34877 1.75621C7.21309 -0.379472 3.7371 -0.379472 1.60142 1.75621C-0.533805 3.89236 -0.533805 7.36788 1.60142 9.50403C3.5033 11.4055 6.46539 11.6092 8.59968 10.1244C8.64459 10.3369 8.74737 10.5397 8.91265 10.705L12.0229 13.8152C12.4761 14.2675 13.2086 14.2675 13.6595 13.8152C14.1123 13.3624 14.1123 12.63 13.6595 12.1786L10.5493 9.06745C10.3849 8.90356 10.1817 8.80031 9.96915 8.75541C11.4548 6.62065 11.2511 3.65902 9.34877 1.75621ZM8.36681 8.52207C6.77234 10.1165 4.17739 10.1165 2.58338 8.52207C0.989831 6.9276 0.989831 4.33311 2.58338 2.73864C4.17739 1.14463 6.77234 1.14463 8.36681 2.73864C9.96128 4.33311 9.96128 6.9276 8.36681 8.52207Z" fill="#2E5EE5"/>
</svg>
