<svg width="33" height="33" viewBox="0 0 33 33" fill="none" xmlns="http://www.w3.org/2000/svg">
<path d="M16.9357 32.423C13.7619 32.423 10.6594 31.4819 8.02044 29.7186C5.38152 27.9553 3.32474 25.4491 2.11018 22.5169C0.895625 19.5847 0.577841 16.3582 1.19702 13.2454C1.81619 10.1326 3.34452 7.27328 5.58873 5.02907C7.83295 2.78486 10.6922 1.25653 13.8051 0.637356C16.9179 0.018179 20.1444 0.335963 23.0766 1.55052C26.0088 2.76508 28.515 4.82186 30.2783 7.46078C32.0415 10.0997 32.9827 13.2022 32.9827 16.376C32.9781 20.6305 31.2859 24.7095 28.2775 27.7179C25.2691 30.7263 21.1902 32.4184 16.9357 32.423ZM16.9357 3.00352C14.2908 3.00352 11.7054 3.7878 9.50631 5.25719C7.30722 6.72658 5.59323 8.81507 4.5811 11.2586C3.56897 13.7021 3.30415 16.3908 3.82013 18.9849C4.33611 21.5789 5.60971 23.9616 7.47989 25.8318C9.35007 27.702 11.7328 28.9756 14.3268 29.4916C16.9208 30.0075 19.6096 29.7427 22.0531 28.7306C24.4966 27.7184 26.5851 26.0045 28.0545 23.8054C29.5239 21.6063 30.3082 19.0208 30.3082 16.376C30.3043 12.8306 28.8941 9.43151 26.3871 6.92453C23.8802 4.41754 20.4811 3.00741 16.9357 3.00352ZM11.5867 19.0505C11.378 19.0496 11.172 19.0975 10.9851 19.1904C10.7983 19.2834 10.6357 19.4188 10.5106 19.5858C10.3854 19.7528 10.3011 19.9468 10.2643 20.1522C10.2276 20.3576 10.2394 20.5688 10.2989 20.7689C10.778 22.1696 11.6687 23.3932 12.8545 24.2795C14.0403 25.1659 15.4659 25.6738 16.945 25.7368C18.4248 25.6784 19.8519 25.1722 21.0377 24.2851C22.2235 23.3981 23.112 22.1719 23.5858 20.7689C23.6393 20.5691 23.6468 20.3598 23.6076 20.1567C23.5684 19.9537 23.4836 19.7622 23.3596 19.5967C23.2356 19.4312 23.0756 19.296 22.8917 19.2014C22.7078 19.1068 22.5048 19.0552 22.298 19.0505H11.5867ZM8.91217 13.7015C8.91217 15.0388 10.109 15.0388 11.5867 15.0388C13.0643 15.0388 14.2612 15.0388 14.2612 13.7015C14.2612 12.9922 13.9794 12.3119 13.4778 11.8104C12.9763 11.3088 12.296 11.027 11.5867 11.027C10.8774 11.027 10.1971 11.3088 9.69552 11.8104C9.19395 12.3119 8.91217 12.9922 8.91217 13.7015ZM19.6102 13.7015C19.6102 15.0388 20.807 15.0388 22.2847 15.0388C23.7623 15.0388 24.9592 15.0388 24.9592 13.7015C24.9592 12.9922 24.6774 12.3119 24.1758 11.8104C23.6743 11.3088 22.994 11.027 22.2847 11.027C21.5753 11.027 20.8951 11.3088 20.3935 11.8104C19.8919 12.3119 19.6102 12.9922 19.6102 13.7015Z" fill="#00BD55"/>
</svg>
