<svg width="160" height="32" viewBox="0 0 160 32" fill="none" xmlns="http://www.w3.org/2000/svg">
<path d="M18.0253 30.3798C19.6456 21.8734 21.8734 19.6456 30.3798 18.0253C31.3924 17.8228 32 17.0127 32 16C32 14.9873 31.3924 14.1772 30.3798 13.9747C21.8734 12.3544 19.6456 10.1266 18.0253 1.62025C17.8228 0.607595 17.0127 0 16 0C14.9873 0 14.1772 0.607595 13.9747 1.62025C12.3544 10.1266 10.1266 12.3544 1.62025 13.9747C0.810127 14.1772 0 14.9873 0 16C0 17.0127 0.607595 17.8228 1.62025 18.0253C10.1266 19.6456 12.3544 21.8734 13.9747 30.3798C14.1772 31.3924 14.9873 32 16 32C17.0127 32 17.8228 31.1899 18.0253 30.3798Z" fill="url(#paint0_linear_901_758)"/>
<path d="M40 28.1583V4.83257H49.2893C51.0752 4.83257 52.5966 5.17046 53.8535 5.84624C55.1105 6.51443 56.0686 7.44457 56.7277 8.63667C57.3945 9.82118 57.7279 11.1879 57.7279 12.7369C57.7279 14.2859 57.3907 15.6526 56.7162 16.8371C56.0417 18.0216 55.0645 18.9442 53.7846 19.6048C52.5122 20.2654 50.9717 20.5957 49.1629 20.5957H43.242V16.6435H48.3581C49.3162 16.6435 50.1056 16.4803 50.7264 16.1538C51.3549 15.8197 51.8224 15.3603 52.129 14.7756C52.4433 14.1834 52.6004 13.5038 52.6004 12.7369C52.6004 11.9624 52.4433 11.2866 52.129 10.7096C51.8224 10.1249 51.3549 9.67312 50.7264 9.35421C50.0979 9.02772 49.3008 8.86447 48.3351 8.86447H44.9781V28.1583H40Z" fill="#232633"/>
<path d="M60.8694 28.1583V10.664H65.6176V13.7164H65.8015C66.1234 12.6306 66.6638 11.8106 67.4225 11.2563C68.1813 10.6944 69.0551 10.4134 70.0438 10.4134C70.2891 10.4134 70.5535 10.4286 70.8371 10.459C71.1207 10.4894 71.3698 10.5311 71.5844 10.5843V14.8895C71.3544 14.8212 71.0364 14.7604 70.6301 14.7073C70.2239 14.6541 69.8522 14.6276 69.515 14.6276C68.7945 14.6276 68.1507 14.7832 67.5835 15.0945C67.024 15.3983 66.5795 15.8235 66.2499 16.3702C65.928 16.9169 65.767 17.5471 65.767 18.2608V28.1583H60.8694Z" fill="#232633"/>
<path d="M81.3422 28.5C79.5257 28.5 77.9622 28.1355 76.6515 27.4066C75.3486 26.6701 74.3445 25.6298 73.6394 24.2859C72.9343 22.9343 72.5817 21.336 72.5817 19.4909C72.5817 17.6913 72.9343 16.112 73.6394 14.7528C74.3445 13.3937 75.3371 12.3345 76.6171 11.5752C77.9047 10.8159 79.4146 10.4362 81.1468 10.4362C82.3118 10.4362 83.3963 10.6222 84.4003 10.9943C85.4121 11.3588 86.2935 11.9093 87.0446 12.6458C87.8034 13.3823 88.3935 14.3087 88.8151 15.4248C89.2366 16.5334 89.4474 17.8318 89.4474 19.32V20.6526H74.5361V17.6458H84.8372C84.8372 16.9472 84.6839 16.3284 84.3773 15.7893C84.0708 15.2502 83.6454 14.8288 83.1012 14.5251C82.5647 14.2137 81.94 14.0581 81.2272 14.0581C80.4838 14.0581 79.8246 14.2289 79.2498 14.5706C78.6826 14.9047 78.2381 15.3565 77.9162 15.926C77.5943 16.4879 77.4295 17.1143 77.4218 17.8052V20.664C77.4218 21.5296 77.5828 22.2775 77.9047 22.9077C78.2343 23.538 78.698 24.0239 79.2958 24.3656C79.8936 24.7073 80.6026 24.8781 81.4227 24.8781C81.9669 24.8781 82.4651 24.8022 82.9173 24.6503C83.3695 24.4985 83.7565 24.2707 84.0784 23.967C84.4003 23.6632 84.6456 23.2912 84.8142 22.8508L89.3439 23.1469C89.114 24.2251 88.6426 25.1667 87.9298 25.9715C87.2247 26.7688 86.3126 27.3914 85.1936 27.8394C84.0823 28.2798 82.7985 28.5 81.3422 28.5Z" fill="#232633"/>
<path d="M108.633 10.664L102.459 28.1583H96.9404L90.7667 10.664H95.9402L99.6076 23.1811H99.7916L103.448 10.664H108.633Z" fill="#232633"/>
<path d="M125.774 4.83257H130.752V19.9806C130.752 21.6815 130.342 23.1697 129.522 24.4453C128.71 25.721 127.572 26.7156 126.108 27.4294C124.644 28.1355 122.938 28.4886 120.992 28.4886C119.037 28.4886 117.328 28.1355 115.864 27.4294C114.4 26.7156 113.262 25.721 112.45 24.4453C111.637 23.1697 111.231 21.6815 111.231 19.9806V4.83257H116.209V19.5592C116.209 20.4476 116.404 21.2373 116.795 21.9282C117.194 22.6192 117.753 23.1621 118.474 23.5569C119.194 23.9518 120.034 24.1492 120.992 24.1492C121.957 24.1492 122.797 23.9518 123.509 23.5569C124.23 23.1621 124.785 22.6192 125.176 21.9282C125.575 21.2373 125.774 20.4476 125.774 19.5592V4.83257Z" fill="#668EFF"/>
<path d="M139.654 18.0444V28.1583H134.756V10.664H139.424V13.7506H139.631C140.022 12.7331 140.677 11.9282 141.597 11.336C142.516 10.7361 143.632 10.4362 144.942 10.4362C146.168 10.4362 147.238 10.702 148.15 11.2335C149.062 11.765 149.771 12.5243 150.277 13.5114C150.782 14.4909 151.035 15.6602 151.035 17.0194V28.1583H146.138V17.885C146.145 16.8144 145.87 15.9791 145.31 15.3793C144.751 14.7718 143.98 14.4681 142.999 14.4681C142.34 14.4681 141.758 14.6086 141.252 14.8895C140.753 15.1705 140.363 15.5805 140.079 16.1196C139.803 16.6511 139.661 17.2927 139.654 18.0444Z" fill="#668EFF"/>
<path d="M154.895 28.1583V10.664H159.793V28.1583H154.895ZM157.356 8.40888C156.628 8.40888 156.003 8.1697 155.482 7.69134C154.968 7.20539 154.711 6.62453 154.711 5.94875C154.711 5.28056 154.968 4.70729 155.482 4.22893C156.003 3.74298 156.628 3.5 157.356 3.5C158.084 3.5 158.705 3.74298 159.218 4.22893C159.739 4.70729 160 5.28056 160 5.94875C160 6.62453 159.739 7.20539 159.218 7.69134C158.705 8.1697 158.084 8.40888 157.356 8.40888Z" fill="#668EFF"/>
<defs>
<linearGradient id="paint0_linear_901_758" x1="32" y1="-1.58313e-06" x2="2.98351" y2="34.9589" gradientUnits="userSpaceOnUse">
<stop stop-color="#CCD9FF"/>
<stop offset="1" stop-color="#668EFF"/>
</linearGradient>
</defs>
</svg>
