<svg width="17" height="17" viewBox="0 0 17 17" fill="none" xmlns="http://www.w3.org/2000/svg">
<g clip-path="url(#clip0_657_861)">
<path d="M5.74666 8.05042C7.95266 8.05042 9.74666 6.25642 9.74666 4.05042C9.74666 1.84442 7.952 0.050415 5.74666 0.050415C3.54133 0.050415 1.74666 1.84442 1.74666 4.05042C1.74666 6.25642 3.54066 8.05042 5.74666 8.05042ZM5.74666 2.05042C6.84933 2.05042 7.74666 2.94775 7.74666 4.05042C7.74666 5.15308 6.84933 6.05042 5.74666 6.05042C4.644 6.05042 3.74666 5.15308 3.74666 4.05042C3.74666 2.94775 4.644 2.05042 5.74666 2.05042ZM7.06266 10.3837C7.06266 10.9364 6.61533 11.3837 6.06266 11.3837C4.04066 11.3837 2.396 13.0284 2.396 15.0504C2.396 15.6031 1.94866 16.0504 1.396 16.0504C0.843329 16.0504 0.395996 15.6031 0.395996 15.0504C0.395996 11.9257 2.938 9.38375 6.06266 9.38375C6.61533 9.38375 7.06266 9.83108 7.06266 10.3837ZM16.158 11.8937L14.5807 13.1784L15.2333 15.1651C15.3227 15.4337 15.232 15.7297 15.0073 15.9024C14.7827 16.0751 14.4733 16.0871 14.2367 15.9331L12.4007 14.7377L10.5953 15.9457C10.4833 16.0211 10.354 16.0584 10.2247 16.0584C10.084 16.0584 9.94333 16.0137 9.82466 15.9251C9.598 15.7557 9.504 15.4611 9.58866 15.1911L10.216 13.1804L8.63133 11.8911C8.418 11.7104 8.34 11.4157 8.43666 11.1531C8.53333 10.8904 8.78266 10.7164 9.062 10.7164H11.0627L11.7707 8.72975C11.868 8.46908 12.1173 8.29575 12.3953 8.29575C12.6733 8.29575 12.9227 8.46908 13.02 8.72975L13.728 10.7164H15.7287C16.0087 10.7164 16.2587 10.8917 16.3547 11.1544C16.4507 11.4177 16.372 11.7131 16.158 11.8937Z" fill="#003DE6"/>
</g>
<defs>
<clipPath id="clip0_657_861">
<rect width="16" height="16" fill="white" transform="translate(0.395996 0.050415)"/>
</clipPath>
</defs>
</svg>
