<svg width="16" height="17" viewBox="0 0 16 17" fill="none" xmlns="http://www.w3.org/2000/svg">
<path d="M11.6436 0.959808H5.62601C4.94888 0.960545 4.2851 1.14822 3.70783 1.50216C3.13056 1.85609 2.66222 2.36254 2.35443 2.96568H1.61426C1.34827 2.96568 1.09317 3.07135 0.905082 3.25944C0.716994 3.44752 0.611328 3.70262 0.611328 3.96862C0.611328 4.23461 0.716994 4.48972 0.905082 4.6778C1.09317 4.86589 1.34827 4.97156 1.61426 4.97156H1.94858V6.3088H1.61426C1.34827 6.3088 1.09317 6.41447 0.905082 6.60256C0.716994 6.79065 0.611328 7.04575 0.611328 7.31174C0.611328 7.57774 0.716994 7.83284 0.905082 8.02093C1.09317 8.20901 1.34827 8.31468 1.61426 8.31468H1.94858V9.65193H1.61426C1.34827 9.65193 1.09317 9.75759 0.905082 9.94568C0.716994 10.1338 0.611328 10.3889 0.611328 10.6549C0.611328 10.9209 0.716994 11.176 0.905082 11.364C1.09317 11.5521 1.34827 11.6578 1.61426 11.6578H1.94858V12.9951H1.61426C1.34827 12.9951 1.09317 13.1007 0.905082 13.2888C0.716994 13.4769 0.611328 13.732 0.611328 13.998C0.611328 14.264 0.716994 14.5191 0.905082 14.7072C1.09317 14.8953 1.34827 15.0009 1.61426 15.0009H2.35443C2.66222 15.6041 3.13056 16.1105 3.70783 16.4644C4.2851 16.8184 4.94888 17.0061 5.62601 17.0068H11.6436C12.6186 17.0057 13.5534 16.618 14.2428 15.9285C14.9322 15.2391 15.32 14.3044 15.3211 13.3294V4.63724C15.32 3.66225 14.9322 2.7275 14.2428 2.03808C13.5534 1.34865 12.6186 0.96087 11.6436 0.959808ZM13.3152 13.3294C13.3152 13.7727 13.1391 14.1979 12.8256 14.5113C12.5121 14.8248 12.087 15.0009 11.6436 15.0009H5.62601C5.18269 15.0009 4.75752 14.8248 4.44404 14.5113C4.13056 14.1979 3.95445 13.7727 3.95445 13.3294V4.63724C3.95445 4.19392 4.13056 3.76875 4.44404 3.45527C4.75752 3.14179 5.18269 2.96568 5.62601 2.96568H11.6436C12.087 2.96568 12.5121 3.14179 12.8256 3.45527C13.1391 3.76875 13.3152 4.19392 13.3152 4.63724V13.3294ZM6.96326 7.31174C6.96326 6.86842 7.13937 6.44325 7.45285 6.12977C7.76633 5.81629 8.1915 5.64018 8.63482 5.64018C9.07815 5.64018 9.50332 5.81629 9.8168 6.12977C10.1303 6.44325 10.3064 6.86842 10.3064 7.31174C10.3064 7.75507 10.1303 8.18024 9.8168 8.49371C9.50332 8.80719 9.07815 8.9833 8.63482 8.9833C8.1915 8.9833 7.76633 8.80719 7.45285 8.49371C7.13937 8.18024 6.96326 7.75507 6.96326 7.31174ZM11.3013 11.8129C11.3114 11.8773 11.3073 11.943 11.2891 12.0056C11.271 12.0682 11.2394 12.126 11.1965 12.175C11.1535 12.2239 11.1004 12.2629 11.0407 12.2891C10.9811 12.3152 10.9164 12.328 10.8513 12.3264H6.39761C6.33249 12.328 6.26783 12.3152 6.20819 12.2891C6.14855 12.2629 6.09539 12.2239 6.05246 12.175C6.00954 12.126 5.9779 12.0682 5.95978 12.0056C5.94167 11.943 5.93751 11.8773 5.94762 11.8129C6.52331 8.9599 10.7263 8.96191 11.3013 11.8129Z" fill="#003DE6"/>
</svg>
