<svg width="19" height="19" viewBox="0 0 19 19" fill="none" xmlns="http://www.w3.org/2000/svg">
<g clip-path="url(#clip0_659_406)">
<path d="M10.0622 6.94396C9.37525 6.88621 8.72125 7.18846 8.05975 7.85071C6.83425 9.07696 6.83425 10.3197 8.05975 11.5445C8.4205 11.906 8.989 12.401 9.75025 12.452C10.4747 12.5 11.1407 12.158 11.7527 11.5445C12.9783 10.319 12.9775 9.07546 11.7527 7.85071C11.392 7.48921 10.8235 7.00171 10.0622 6.94321V6.94396ZM10.6923 10.4847C10.4658 10.7112 10.117 10.976 9.86575 10.9565C9.66925 10.9415 9.41875 10.7825 9.121 10.4847C8.53075 9.89446 8.44825 9.58471 9.121 8.91121C9.33925 8.69296 9.6505 8.43871 9.91675 8.43871C9.92725 8.43871 9.93775 8.43871 9.9475 8.43946C10.144 8.45446 10.3945 8.61346 10.6923 8.91121C11.2825 9.50146 11.365 9.81121 10.6923 10.4847Z" fill="#E6ECFF"/>
<path d="M18.1522 9.66348C18.1567 8.75898 17.8132 7.66698 16.2239 7.37598C16.1414 7.21848 16.0507 7.06023 15.9509 6.90123C16.7519 5.79198 16.6904 4.76298 15.7649 3.83748C14.8387 2.91048 13.8097 2.84973 12.6997 3.65373C12.5429 3.55473 12.3862 3.46473 12.2294 3.38373C11.9429 1.79973 10.8614 1.44873 9.95918 1.44873C8.69168 1.44873 7.88093 2.11698 7.64468 3.41673C7.48868 3.49848 7.33118 3.58923 7.17293 3.68823C6.06818 2.89023 5.03843 2.95848 4.10318 3.89223C3.17093 4.82523 3.10343 5.85573 3.89918 6.96048C3.79943 7.11948 3.70793 7.27773 3.62468 7.43523C2.32793 7.67223 1.66793 8.44398 1.66118 9.73248C1.65668 10.637 2.00018 11.729 3.58943 12.02C3.67193 12.1775 3.76268 12.3357 3.86318 12.4947C3.06143 13.604 3.12293 14.633 4.04843 15.5585C4.97468 16.4855 6.00443 16.5462 7.11368 15.7422C7.27043 15.8412 7.42718 15.9312 7.58393 16.0122C7.87043 17.5962 8.95193 17.9472 9.85418 17.9472C11.1449 17.9472 11.9324 17.279 12.1687 15.9792C12.3247 15.8975 12.4822 15.8067 12.6404 15.7077C13.7437 16.5035 14.7704 16.4337 15.7094 15.5037C16.6484 14.5737 16.7099 13.5402 15.9142 12.4347C16.0139 12.2757 16.1054 12.1175 16.1887 11.9607C17.4854 11.7237 18.1454 10.952 18.1522 9.66348ZM15.6254 10.5237C15.3524 10.547 15.1139 10.718 15.0037 10.9685C14.8529 11.3105 14.6414 11.669 14.3744 12.0327C14.1629 12.3215 14.1854 12.7205 14.4277 12.9845C15.2324 13.859 14.9624 14.1297 14.6489 14.4432C14.3227 14.7702 14.0639 15.0282 13.1917 14.2212C12.9277 13.9782 12.5294 13.9557 12.2392 14.1672C11.8769 14.4327 11.5199 14.6435 11.1772 14.7927C10.9259 14.903 10.7549 15.1415 10.7309 15.416C10.6424 16.4435 10.2809 16.4457 9.86318 16.4472C9.43943 16.4472 9.09968 16.4517 9.02168 15.4527C8.99993 15.1745 8.82593 14.9315 8.56943 14.822C8.22893 14.6757 7.87418 14.468 7.51568 14.2032C7.38293 14.105 7.22618 14.057 7.07018 14.057C6.88718 14.057 6.70493 14.1237 6.56168 14.2557C5.67743 15.071 5.41268 14.8047 5.10743 14.4987C4.80068 14.192 4.53593 13.9265 5.34893 13.0437C5.59268 12.779 5.61443 12.3792 5.39993 12.0897C5.13293 11.729 4.92368 11.3735 4.77743 11.0345C4.66793 10.7787 4.42493 10.6047 4.14818 10.583C3.15443 10.5035 3.15593 10.1667 3.15818 9.74073C3.16043 9.30498 3.16193 8.96073 4.18493 8.87223C4.45793 8.84898 4.69643 8.67798 4.80668 8.42748C4.95818 8.08473 5.16968 7.72623 5.43593 7.36248C5.64743 7.07373 5.62493 6.67473 5.38268 6.41073C4.57793 5.53698 4.84868 5.26623 5.16143 4.95273C5.48768 4.62648 5.74643 4.36848 6.61868 5.17398C6.88268 5.41773 7.28093 5.43948 7.57043 5.22798C7.93343 4.96248 8.29043 4.75248 8.63318 4.60248C8.88443 4.49223 9.05543 4.25373 9.07943 3.97923C9.16793 2.95173 9.52943 2.94948 9.94718 2.94798C10.3769 2.95098 10.7107 2.94348 10.7887 3.94248C10.8104 4.22073 10.9844 4.46373 11.2409 4.57323C11.5814 4.71948 11.9362 4.92723 12.2947 5.19198C12.5834 5.40498 12.9839 5.38323 13.2479 5.14023C14.1322 4.32498 14.3962 4.59123 14.7022 4.89723C15.0089 5.20398 15.2744 5.46948 14.4607 6.35223C14.2169 6.61698 14.1952 7.01748 14.4089 7.30623C14.6759 7.66698 14.8852 8.02248 15.0314 8.36148C15.1409 8.61723 15.3839 8.79123 15.6607 8.81298C16.6544 8.89248 16.6529 9.22923 16.6507 9.65523C16.6484 10.091 16.6469 10.4352 15.6239 10.5237H15.6254Z" fill="#E6ECFF"/>
</g>
<defs>
<clipPath id="clip0_659_406">
<rect width="18" height="18" fill="white" transform="translate(0.90625 0.697998)"/>
</clipPath>
</defs>
</svg>
