<svg width="16" height="17" viewBox="0 0 16 17" fill="none" xmlns="http://www.w3.org/2000/svg">
<path d="M13.7405 3.13421L9.64963 0.734786C9.12013 0.423113 8.51374 0.258423 7.89566 0.258423C7.27757 0.258423 6.67118 0.423113 6.14168 0.734786L2.05077 3.13421C1.5472 3.43169 1.13044 3.85088 0.840626 4.35143C0.550808 4.85197 0.397684 5.41703 0.395996 5.99219V10.5244C0.397684 11.0996 0.550808 11.6647 0.840626 12.1652C1.13044 12.6657 1.5472 13.0849 2.05077 13.3824L6.14168 15.7818C6.67113 16.0937 7.27754 16.2584 7.89566 16.2584C8.51377 16.2584 9.12018 16.0937 9.64963 15.7818L13.7405 13.3824C14.2442 13.085 14.6611 12.6659 14.9511 12.1653C15.241 11.6648 15.3942 11.0997 15.396 10.5244V5.99219C15.3942 5.41696 15.241 4.85187 14.9511 4.35131C14.6611 3.85076 14.2442 3.4316 13.7405 3.13421ZM6.84395 1.87851C7.16149 1.69141 7.52523 1.59254 7.896 1.59254C8.26676 1.59254 8.6305 1.69141 8.94804 1.87851L13.039 4.27793C13.1507 4.34367 13.2558 4.41978 13.3526 4.50521L7.89804 7.70445L2.4435 4.50521C2.5402 4.41963 2.64525 4.34351 2.75713 4.27793L6.84395 1.87851ZM2.75304 12.2394C2.45072 12.061 2.20051 11.8095 2.02651 11.5091C1.85251 11.2087 1.7606 10.8696 1.75963 10.5244V5.99219C1.75954 5.88612 1.76843 5.78023 1.78622 5.6756L7.21418 8.85817V14.8087C7.08526 14.7638 6.96123 14.7064 6.84395 14.6374L2.75304 12.2394ZM14.0324 10.5244C14.0313 10.8696 13.9393 11.2087 13.7653 11.509C13.5913 11.8094 13.3412 12.0609 13.039 12.2394L8.94804 14.6388C8.83076 14.7078 8.70674 14.7651 8.57782 14.8101V8.85817L14.0058 5.67493C14.0236 5.77978 14.0325 5.8859 14.0324 5.99219V10.5244Z" fill="#003DE6"/>
</svg>
