<svg width="544" height="525" viewBox="0 0 544 525" fill="none" xmlns="http://www.w3.org/2000/svg">
<path d="M254.6 27.9355C259.906 11.3992 283.162 11.2699 288.749 27.5479L288.878 27.9355L337.703 180.083L341.046 190.5H510.396C527.672 190.5 534.96 212.413 521.342 222.79L521.017 223.033L392.455 316.982L383.693 323.385L387.033 333.71L436.304 486.024C441.64 502.521 422.896 516.202 408.849 506.307L408.518 506.068L280.622 412.068L271.738 405.54L262.855 412.068L134.959 506.068C120.988 516.336 102.092 502.865 107.052 486.413L107.173 486.024L156.443 333.71L159.784 323.384L151.021 316.981L22.4443 223.034C8.38515 212.762 15.6511 190.5 33.0635 190.5H202.432L205.774 180.083L254.6 27.9355Z" stroke="#003DE6" stroke-width="30"/>
</svg>
