<svg width="17" height="17" viewBox="0 0 17 17" fill="none" xmlns="http://www.w3.org/2000/svg">
<path d="M8.21392 17.0069C7.11069 17.0069 6.20805 16.1042 6.20805 15.001V2.96577C6.20805 1.86254 7.11069 0.9599 8.21392 0.9599C9.31715 0.9599 10.2198 1.86254 10.2198 2.96577V15.001C10.2198 16.1042 9.31715 17.0069 8.21392 17.0069ZM14.2315 17.0069C13.1283 17.0069 12.2257 16.1042 12.2257 15.001V6.97752C12.2257 5.87429 13.1283 4.97165 14.2315 4.97165C15.3348 4.97165 16.2374 5.87429 16.2374 6.97752V15.001C16.2374 16.1042 15.3348 17.0069 14.2315 17.0069ZM2.1963 17.0069C1.09307 17.0069 0.19043 16.1042 0.19043 15.001V10.9893C0.19043 9.88604 1.09307 8.98339 2.1963 8.98339C3.29953 8.98339 4.20218 9.88604 4.20218 10.9893V15.001C4.20218 16.1042 3.29953 17.0069 2.1963 17.0069Z" fill="#003DE6"/>
</svg>
