<svg width="153" height="11" viewBox="0 0 153 11" fill="none" xmlns="http://www.w3.org/2000/svg">
<path d="M8.80682 0L1.99432 10.4489H0L6.8125 0H8.80682Z" fill="#0E1C3D"/>
<path d="M13.7521 0L6.93963 10.4489H4.94531L11.7578 0H13.7521Z" fill="#0E1C3D"/>
<path d="M18.6974 0L11.8849 10.4489H9.89062L16.7031 0H18.6974Z" fill="#0E1C3D"/>
<path d="M23.6428 0L16.8303 10.4489H14.8359L21.6484 0H23.6428Z" fill="#0E1C3D"/>
<path d="M28.5881 0L21.7756 10.4489H19.7812L26.5938 0H28.5881Z" fill="#0E1C3D"/>
<path d="M33.5334 0L26.7209 10.4489H24.7266L31.5391 0H33.5334Z" fill="#0E1C3D"/>
<path d="M38.4787 0L31.6662 10.4489H29.6719L36.4844 0H38.4787Z" fill="#0E1C3D"/>
<path d="M43.424 0L36.6115 10.4489H34.6172L41.4297 0H43.424Z" fill="#0E1C3D"/>
<path d="M48.3693 0L41.5568 10.4489H39.5625L46.375 0H48.3693Z" fill="#0E1C3D"/>
<path d="M53.3146 0L46.5021 10.4489H44.5078L51.3203 0H53.3146Z" fill="#0E1C3D"/>
<path d="M58.2599 0L51.4474 10.4489H49.4531L56.2656 0H58.2599Z" fill="#0E1C3D"/>
<path d="M63.2053 0L56.3928 10.4489H54.3984L61.2109 0H63.2053Z" fill="#0E1C3D"/>
<path d="M68.1506 0L61.3381 10.4489H59.3438L66.1562 0H68.1506Z" fill="#0E1C3D"/>
<path d="M73.0959 0L66.2834 10.4489H64.2891L71.1016 0H73.0959Z" fill="#0E1C3D"/>
<path d="M78.0412 0L71.2287 10.4489H69.2344L76.0469 0H78.0412Z" fill="#0E1C3D"/>
<path d="M82.9865 0L76.174 10.4489H74.1797L80.9922 0H82.9865Z" fill="#0E1C3D"/>
<path d="M87.9318 0L81.1193 10.4489H79.125L85.9375 0H87.9318Z" fill="#0E1C3D"/>
<path d="M92.8771 0L86.0646 10.4489H84.0703L90.8828 0H92.8771Z" fill="#0E1C3D"/>
<path d="M97.8224 0L91.0099 10.4489H89.0156L95.8281 0H97.8224Z" fill="#0E1C3D"/>
<path d="M102.768 0L95.9553 10.4489H93.9609L100.773 0H102.768Z" fill="#0E1C3D"/>
<path d="M107.713 0L100.901 10.4489H98.9062L105.719 0H107.713Z" fill="#0E1C3D"/>
<path d="M112.658 0L105.846 10.4489H103.852L110.664 0H112.658Z" fill="#0E1C3D"/>
<path d="M117.604 0L110.791 10.4489H108.797L115.609 0H117.604Z" fill="#0E1C3D"/>
<path d="M122.549 0L115.737 10.4489H113.742L120.555 0H122.549Z" fill="#0E1C3D"/>
<path d="M127.494 0L120.682 10.4489H118.688L125.5 0H127.494Z" fill="#0E1C3D"/>
<path d="M132.44 0L125.627 10.4489H123.633L130.445 0H132.44Z" fill="#0E1C3D"/>
<path d="M137.385 0L130.572 10.4489H128.578L135.391 0H137.385Z" fill="#0E1C3D"/>
<path d="M142.33 0L135.518 10.4489H133.523L140.336 0H142.33Z" fill="#0E1C3D"/>
<path d="M147.276 0L140.463 10.4489H138.469L145.281 0H147.276Z" fill="#0E1C3D"/>
<path d="M152.221 0L145.408 10.4489H143.414L150.227 0H152.221Z" fill="#0E1C3D"/>
</svg>
