<svg width="33" height="33" viewBox="0 0 33 33" fill="none" xmlns="http://www.w3.org/2000/svg">
<path d="M16.4073 0.328979C7.55876 0.328979 0.360352 7.52739 0.360352 16.376C0.360352 25.2245 7.55876 32.423 16.4073 32.423C25.2559 32.423 32.4543 25.2245 32.4543 16.376C32.4543 7.52739 25.2559 0.328979 16.4073 0.328979ZM16.4073 29.7485C9.03375 29.7485 3.03485 23.7496 3.03485 16.376C3.03485 9.00238 9.03375 3.00348 16.4073 3.00348C23.7809 3.00348 29.7798 9.00238 29.7798 16.376C29.7798 23.7496 23.7809 29.7485 16.4073 29.7485ZM23.0936 13.0328C23.0936 14.1401 22.195 15.0387 21.0877 15.0387C19.9805 15.0387 19.0818 14.1401 19.0818 13.0328C19.0818 11.9256 19.9805 11.027 21.0877 11.027C22.195 11.027 23.0936 11.9256 23.0936 13.0328ZM9.7211 13.0328C9.7211 11.9256 10.6197 11.027 11.727 11.027C12.8342 11.027 13.7328 11.9256 13.7328 13.0328C13.7328 14.1401 12.8342 15.0387 11.727 15.0387C10.6197 15.0387 9.7211 14.1401 9.7211 13.0328Z" fill="#003DE6"/>
<path d="M24.4308 21.725C24.4308 22.4645 23.8317 23.0622 23.0936 23.0622H9.7211C8.98293 23.0622 8.38385 22.4645 8.38385 21.725C8.38385 20.9855 8.98293 20.3877 9.7211 20.3877H23.0936C23.8317 20.3877 24.4308 20.9855 24.4308 21.725Z" fill="#003DE6"/>
</svg>
